<mxfile host="app.diagrams.net" agent="Mozilla/5.0 (X11; Linux x86_64; rv:141.0) Gecko/20100101 Firefox/141.0" version="28.1.0">
  <diagram name="Page-1" id="4VQ5ia6EDQzyAsrHSo6h">
    <mxGraphModel dx="1339" dy="708" grid="1" gridSize="10" guides="1" tooltips="1" connect="1" arrows="1" fold="1" page="1" pageScale="1" pageWidth="850" pageHeight="1100" math="0" shadow="0">
      <root>
        <mxCell id="0" />
        <mxCell id="1" parent="0" />
        <mxCell id="vgEYRSUmCtOjALrXIcj1-28" value="" style="rounded=0;whiteSpace=wrap;html=1;strokeColor=none;" parent="1" vertex="1">
          <mxGeometry x="30" y="70" width="660" height="380" as="geometry" />
        </mxCell>
        <mxCell id="vgEYRSUmCtOjALrXIcj1-1" value="" style="pointerEvents=1;verticalLabelPosition=bottom;shadow=0;dashed=0;align=center;html=1;verticalAlign=top;shape=mxgraph.electrical.signal_sources.source;aspect=fixed;points=[[0.5,0,0],[1,0.5,0],[0.5,1,0],[0,0.5,0]];elSignalType=ac;" parent="1" vertex="1">
          <mxGeometry x="90" y="250" width="60" height="60" as="geometry" />
        </mxCell>
        <mxCell id="vgEYRSUmCtOjALrXIcj1-4" value="" style="pointerEvents=1;fillColor=strokeColor;verticalLabelPosition=bottom;shadow=0;dashed=0;align=center;html=1;verticalAlign=top;shape=mxgraph.electrical.diodes.diode;" parent="1" vertex="1">
          <mxGeometry x="190" y="170" width="100" height="60" as="geometry" />
        </mxCell>
        <mxCell id="vgEYRSUmCtOjALrXIcj1-5" value="" style="pointerEvents=1;verticalLabelPosition=bottom;shadow=0;dashed=0;align=center;html=1;verticalAlign=top;shape=mxgraph.electrical.capacitors.capacitor_1;rotation=90;" parent="1" vertex="1">
          <mxGeometry x="310" y="250" width="100" height="60" as="geometry" />
        </mxCell>
        <mxCell id="vgEYRSUmCtOjALrXIcj1-6" value="" style="pointerEvents=1;verticalLabelPosition=bottom;shadow=0;dashed=0;align=center;html=1;verticalAlign=top;shape=mxgraph.electrical.resistors.resistor_1;rotation=90;" parent="1" vertex="1">
          <mxGeometry x="470" y="270" width="100" height="20" as="geometry" />
        </mxCell>
        <mxCell id="vgEYRSUmCtOjALrXIcj1-7" value="" style="endArrow=none;html=1;rounded=0;entryX=0;entryY=0.5;entryDx=0;entryDy=0;entryPerimeter=0;exitX=0.5;exitY=0;exitDx=0;exitDy=0;exitPerimeter=0;" parent="1" source="vgEYRSUmCtOjALrXIcj1-1" target="vgEYRSUmCtOjALrXIcj1-4" edge="1">
          <mxGeometry width="50" height="50" relative="1" as="geometry">
            <mxPoint x="400" y="400" as="sourcePoint" />
            <mxPoint x="450" y="350" as="targetPoint" />
            <Array as="points">
              <mxPoint x="120" y="200" />
            </Array>
          </mxGeometry>
        </mxCell>
        <mxCell id="vgEYRSUmCtOjALrXIcj1-8" value="" style="endArrow=none;html=1;rounded=0;entryX=1;entryY=0.5;entryDx=0;entryDy=0;entryPerimeter=0;exitX=0;exitY=0.5;exitDx=0;exitDy=0;exitPerimeter=0;" parent="1" source="vgEYRSUmCtOjALrXIcj1-6" target="vgEYRSUmCtOjALrXIcj1-4" edge="1">
          <mxGeometry width="50" height="50" relative="1" as="geometry">
            <mxPoint x="400" y="400" as="sourcePoint" />
            <mxPoint x="450" y="350" as="targetPoint" />
            <Array as="points">
              <mxPoint x="520" y="200" />
              <mxPoint x="400" y="200" />
            </Array>
          </mxGeometry>
        </mxCell>
        <mxCell id="vgEYRSUmCtOjALrXIcj1-9" value="" style="endArrow=none;html=1;rounded=0;entryX=0;entryY=0.5;entryDx=0;entryDy=0;entryPerimeter=0;" parent="1" target="vgEYRSUmCtOjALrXIcj1-5" edge="1">
          <mxGeometry width="50" height="50" relative="1" as="geometry">
            <mxPoint x="360" y="200" as="sourcePoint" />
            <mxPoint x="450" y="350" as="targetPoint" />
          </mxGeometry>
        </mxCell>
        <mxCell id="vgEYRSUmCtOjALrXIcj1-10" value="" style="endArrow=none;html=1;rounded=0;entryX=0.5;entryY=1;entryDx=0;entryDy=0;entryPerimeter=0;" parent="1" target="vgEYRSUmCtOjALrXIcj1-1" edge="1">
          <mxGeometry width="50" height="50" relative="1" as="geometry">
            <mxPoint x="400" y="360" as="sourcePoint" />
            <mxPoint x="450" y="350" as="targetPoint" />
            <Array as="points">
              <mxPoint x="120" y="360" />
            </Array>
          </mxGeometry>
        </mxCell>
        <mxCell id="vgEYRSUmCtOjALrXIcj1-11" value="" style="endArrow=none;html=1;rounded=0;entryX=1;entryY=0.5;entryDx=0;entryDy=0;entryPerimeter=0;" parent="1" target="vgEYRSUmCtOjALrXIcj1-5" edge="1">
          <mxGeometry width="50" height="50" relative="1" as="geometry">
            <mxPoint x="360" y="360" as="sourcePoint" />
            <mxPoint x="450" y="350" as="targetPoint" />
          </mxGeometry>
        </mxCell>
        <mxCell id="vgEYRSUmCtOjALrXIcj1-12" value="" style="endArrow=none;html=1;rounded=0;entryX=1;entryY=0.5;entryDx=0;entryDy=0;entryPerimeter=0;" parent="1" target="vgEYRSUmCtOjALrXIcj1-6" edge="1">
          <mxGeometry width="50" height="50" relative="1" as="geometry">
            <mxPoint x="400" y="360" as="sourcePoint" />
            <mxPoint x="450" y="350" as="targetPoint" />
            <Array as="points">
              <mxPoint x="520" y="360" />
            </Array>
          </mxGeometry>
        </mxCell>
        <mxCell id="vgEYRSUmCtOjALrXIcj1-13" value="" style="endArrow=classic;html=1;rounded=0;strokeColor=#3333FF;strokeWidth=2;" parent="1" edge="1">
          <mxGeometry width="50" height="50" relative="1" as="geometry">
            <mxPoint x="80" y="220" as="sourcePoint" />
            <mxPoint x="80" y="340" as="targetPoint" />
          </mxGeometry>
        </mxCell>
        <mxCell id="vgEYRSUmCtOjALrXIcj1-14" value="&lt;div&gt;&lt;font style=&quot;font-size: 20px;&quot;&gt;u&lt;sub&gt;s(t)&lt;/sub&gt;&lt;/font&gt;&lt;/div&gt;&lt;div&gt;&lt;font style=&quot;font-size: 20px;&quot;&gt;9 V&lt;/font&gt;&lt;/div&gt;" style="edgeLabel;html=1;align=center;verticalAlign=middle;resizable=0;points=[];" parent="vgEYRSUmCtOjALrXIcj1-13" vertex="1" connectable="0">
          <mxGeometry x="-0.1125" y="-2" relative="1" as="geometry">
            <mxPoint x="-28" y="9" as="offset" />
          </mxGeometry>
        </mxCell>
        <mxCell id="vgEYRSUmCtOjALrXIcj1-15" value="" style="endArrow=classic;html=1;rounded=0;strokeColor=#3333FF;strokeWidth=2;" parent="1" edge="1">
          <mxGeometry width="50" height="50" relative="1" as="geometry">
            <mxPoint x="160" y="160" as="sourcePoint" />
            <mxPoint x="320" y="160" as="targetPoint" />
          </mxGeometry>
        </mxCell>
        <mxCell id="vgEYRSUmCtOjALrXIcj1-16" value="&lt;div&gt;&lt;font style=&quot;font-size: 20px;&quot;&gt;U&lt;sub&gt;D&lt;/sub&gt;&amp;nbsp;= 2 V&lt;/font&gt;&lt;/div&gt;" style="edgeLabel;html=1;align=center;verticalAlign=middle;resizable=0;points=[];" parent="vgEYRSUmCtOjALrXIcj1-15" vertex="1" connectable="0">
          <mxGeometry x="-0.1125" y="-2" relative="1" as="geometry">
            <mxPoint x="9" y="-22" as="offset" />
          </mxGeometry>
        </mxCell>
        <mxCell id="vgEYRSUmCtOjALrXIcj1-17" value="" style="endArrow=classic;html=1;rounded=0;strokeColor=#3333FF;strokeWidth=2;" parent="1" edge="1">
          <mxGeometry width="50" height="50" relative="1" as="geometry">
            <mxPoint x="440" y="220" as="sourcePoint" />
            <mxPoint x="440" y="340" as="targetPoint" />
          </mxGeometry>
        </mxCell>
        <mxCell id="vgEYRSUmCtOjALrXIcj1-18" value="&lt;div&gt;&lt;font style=&quot;font-size: 20px;&quot;&gt;U&lt;sub&gt;RC&lt;/sub&gt;&lt;br&gt;&lt;/font&gt;&lt;/div&gt;&lt;div&gt;&lt;font style=&quot;font-size: 20px;&quot;&gt;7 V&lt;/font&gt;&lt;/div&gt;" style="edgeLabel;html=1;align=center;verticalAlign=middle;resizable=0;points=[];" parent="vgEYRSUmCtOjALrXIcj1-17" vertex="1" connectable="0">
          <mxGeometry x="-0.1125" y="-2" relative="1" as="geometry">
            <mxPoint x="32" y="7" as="offset" />
          </mxGeometry>
        </mxCell>
        <mxCell id="vgEYRSUmCtOjALrXIcj1-19" value="&lt;font style=&quot;font-size: 20px;&quot;&gt;R&lt;/font&gt;" style="text;html=1;align=center;verticalAlign=middle;whiteSpace=wrap;rounded=0;" parent="1" vertex="1">
          <mxGeometry x="530" y="265" width="30" height="30" as="geometry" />
        </mxCell>
        <mxCell id="vgEYRSUmCtOjALrXIcj1-20" value="&lt;font style=&quot;font-size: 20px;&quot;&gt;C&lt;/font&gt;" style="text;html=1;align=center;verticalAlign=middle;whiteSpace=wrap;rounded=0;" parent="1" vertex="1">
          <mxGeometry x="395" y="265" width="30" height="30" as="geometry" />
        </mxCell>
        <mxCell id="vgEYRSUmCtOjALrXIcj1-21" value="" style="endArrow=classic;html=1;rounded=0;strokeWidth=2;strokeColor=#FF3333;entryX=0;entryY=0.5;entryDx=0;entryDy=0;entryPerimeter=0;" parent="1" target="vgEYRSUmCtOjALrXIcj1-5" edge="1">
          <mxGeometry width="50" height="50" relative="1" as="geometry">
            <mxPoint x="360" y="200" as="sourcePoint" />
            <mxPoint x="450" y="460" as="targetPoint" />
          </mxGeometry>
        </mxCell>
        <mxCell id="vgEYRSUmCtOjALrXIcj1-23" value="&lt;font style=&quot;font-size: 20px; color: rgb(255, 51, 51);&quot;&gt;I&lt;sub&gt;C&lt;/sub&gt;&lt;/font&gt;" style="edgeLabel;html=1;align=center;verticalAlign=middle;resizable=0;points=[];" parent="vgEYRSUmCtOjALrXIcj1-21" vertex="1" connectable="0">
          <mxGeometry y="-4" relative="1" as="geometry">
            <mxPoint x="24" as="offset" />
          </mxGeometry>
        </mxCell>
        <mxCell id="vgEYRSUmCtOjALrXIcj1-22" value="" style="endArrow=classic;html=1;rounded=0;strokeWidth=2;strokeColor=#FF3333;" parent="1" edge="1">
          <mxGeometry width="50" height="50" relative="1" as="geometry">
            <mxPoint x="120" y="240" as="sourcePoint" />
            <mxPoint x="120" y="210" as="targetPoint" />
          </mxGeometry>
        </mxCell>
        <mxCell id="vgEYRSUmCtOjALrXIcj1-26" value="&lt;font style=&quot;font-size: 20px; color: rgb(255, 51, 51);&quot;&gt;I&lt;sub&gt;tot&lt;/sub&gt;&lt;/font&gt;" style="edgeLabel;html=1;align=center;verticalAlign=middle;resizable=0;points=[];" parent="vgEYRSUmCtOjALrXIcj1-22" vertex="1" connectable="0">
          <mxGeometry x="0.2" y="4" relative="1" as="geometry">
            <mxPoint x="24" as="offset" />
          </mxGeometry>
        </mxCell>
        <mxCell id="vgEYRSUmCtOjALrXIcj1-24" value="" style="endArrow=classic;html=1;rounded=0;strokeWidth=2;strokeColor=#FF3333;entryX=0;entryY=0.5;entryDx=0;entryDy=0;entryPerimeter=0;" parent="1" target="vgEYRSUmCtOjALrXIcj1-6" edge="1">
          <mxGeometry width="50" height="50" relative="1" as="geometry">
            <mxPoint x="520" y="200" as="sourcePoint" />
            <mxPoint x="610" y="230" as="targetPoint" />
          </mxGeometry>
        </mxCell>
        <mxCell id="vgEYRSUmCtOjALrXIcj1-25" value="&lt;font style=&quot;font-size: 20px; color: rgb(255, 51, 51);&quot;&gt;I&lt;sub&gt;R&lt;/sub&gt;&lt;/font&gt;" style="edgeLabel;html=1;align=center;verticalAlign=middle;resizable=0;points=[];" parent="vgEYRSUmCtOjALrXIcj1-24" vertex="1" connectable="0">
          <mxGeometry y="-4" relative="1" as="geometry">
            <mxPoint x="24" as="offset" />
          </mxGeometry>
        </mxCell>
        <mxCell id="vgEYRSUmCtOjALrXIcj1-27" value="&lt;font style=&quot;font-size: 24px;&quot;&gt;Charging Phase&lt;/font&gt;" style="text;html=1;align=center;verticalAlign=middle;whiteSpace=wrap;rounded=0;" parent="1" vertex="1">
          <mxGeometry x="245" y="370" width="180" height="40" as="geometry" />
        </mxCell>
        <mxCell id="3GvgIpfz-xqhb-hyKQ3i-1" value="" style="endArrow=classic;html=1;rounded=0;strokeColor=#3333FF;strokeWidth=2;" edge="1" parent="1">
          <mxGeometry width="50" height="50" relative="1" as="geometry">
            <mxPoint x="600" y="80" as="sourcePoint" />
            <mxPoint x="600" y="440" as="targetPoint" />
          </mxGeometry>
        </mxCell>
        <mxCell id="3GvgIpfz-xqhb-hyKQ3i-2" value="&lt;div&gt;&lt;font style=&quot;font-size: 20px;&quot;&gt;U&lt;sub&gt;s&lt;/sub&gt;&lt;/font&gt;&lt;/div&gt;" style="edgeLabel;html=1;align=center;verticalAlign=middle;resizable=0;points=[];" vertex="1" connectable="0" parent="3GvgIpfz-xqhb-hyKQ3i-1">
          <mxGeometry x="-0.1125" y="-2" relative="1" as="geometry">
            <mxPoint x="-18" y="10" as="offset" />
          </mxGeometry>
        </mxCell>
        <mxCell id="3GvgIpfz-xqhb-hyKQ3i-3" value="" style="endArrow=classic;html=1;rounded=0;strokeColor=#3333FF;strokeWidth=2;" edge="1" parent="1">
          <mxGeometry width="50" height="50" relative="1" as="geometry">
            <mxPoint x="640" y="80" as="sourcePoint" />
            <mxPoint x="640" y="160" as="targetPoint" />
          </mxGeometry>
        </mxCell>
        <mxCell id="3GvgIpfz-xqhb-hyKQ3i-4" value="&lt;div&gt;&lt;font style=&quot;font-size: 20px;&quot;&gt;U&lt;sub&gt;D&lt;/sub&gt;&lt;/font&gt;&lt;/div&gt;" style="edgeLabel;html=1;align=center;verticalAlign=middle;resizable=0;points=[];" vertex="1" connectable="0" parent="3GvgIpfz-xqhb-hyKQ3i-3">
          <mxGeometry x="-0.1125" y="-2" relative="1" as="geometry">
            <mxPoint x="22" y="4" as="offset" />
          </mxGeometry>
        </mxCell>
        <mxCell id="3GvgIpfz-xqhb-hyKQ3i-5" value="" style="endArrow=classic;html=1;rounded=0;strokeColor=#3333FF;strokeWidth=2;" edge="1" parent="1">
          <mxGeometry width="50" height="50" relative="1" as="geometry">
            <mxPoint x="640" y="160" as="sourcePoint" />
            <mxPoint x="640" y="440" as="targetPoint" />
          </mxGeometry>
        </mxCell>
        <mxCell id="3GvgIpfz-xqhb-hyKQ3i-6" value="&lt;div&gt;&lt;font style=&quot;font-size: 20px;&quot;&gt;U&lt;sub&gt;RC&lt;/sub&gt;&lt;br&gt;&lt;/font&gt;&lt;/div&gt;" style="edgeLabel;html=1;align=center;verticalAlign=middle;resizable=0;points=[];" vertex="1" connectable="0" parent="3GvgIpfz-xqhb-hyKQ3i-5">
          <mxGeometry x="-0.1125" y="-2" relative="1" as="geometry">
            <mxPoint x="32" y="6" as="offset" />
          </mxGeometry>
        </mxCell>
      </root>
    </mxGraphModel>
  </diagram>
</mxfile>
